<?xml version="1.0" encoding="utf-8"?>
<!-- Generator: Adobe Illustrator 22.1.0, SVG Export Plug-In . SVG Version: 6.00 Build 0)  -->
<svg version="1.1" id="Layer_1" xmlns="http://www.w3.org/2000/svg" xmlns:xlink="http://www.w3.org/1999/xlink" x="0px" y="0px"
	 viewBox="0 0 40 24" style="enable-background:new 0 0 40 24;" xml:space="preserve">
<style type="text/css">
	.st0{fill:#001D26;}
</style>
<g id="a">
	<path class="st0" d="M33,0.5H8c-2.5,0-4.5,2-4.5,4.5v14c0,2.5,2,4.5,4.5,4.5h25c2.5,0,4.5-2,4.5-4.5V5C37.5,2.5,35.5,0.5,33,0.5z
		 M36.5,19c0,1.9-1.6,3.5-3.5,3.5H8c-1.9,0-3.5-1.6-3.5-3.5V5c0-1.9,1.6-3.5,3.5-3.5h25c1.9,0,3.5,1.6,3.5,3.5V19z"/>
	<path class="st0" d="M18,13c0-0.2,0-0.4,0-0.6c-0.2-1.9-1.8-3.2-3.7-3.1c-1.1,0-2.2,0.2-3.1,0.8l0.4,1.4c0.7-0.4,1.6-0.6,2.4-0.6
		c1.5,0,1.7,0.9,1.7,1.5v0.2c-3.2-0.1-5.2,1.1-5.2,3.3c0,0.1,0,0.1,0,0.2c0.1,1.4,1.4,2.5,2.8,2.4c1,0,2-0.4,2.6-1.2l0.2,1h2
		C18,17.6,18,16.9,18,16.2V13z M15.8,15.2c0,0.2,0,0.3-0.1,0.5c-0.3,0.7-0.9,1.2-1.7,1.2c-0.1,0-0.1,0-0.2,0
		c-0.7-0.1-1.1-0.6-1.1-1.3c0-1.3,1.5-1.6,3.1-1.6V15.2z"/>
	<rect x="20.3" y="5.5" class="st0" width="2.2" height="12.8"/>
	<path class="st0" d="M27.5,7l-2.2,0.5v2H24v1.7h1.3v4.2c-0.1,0.9,0.2,1.7,0.7,2.4c0.5,0.5,1.2,0.8,1.9,0.8c0.6,0,1.1-0.1,1.6-0.3
		v-1.6h-0.9c-0.9,0-1.1-0.6-1.1-1.7v-3.8h2.1V9.5h-2.1V7z"/>
</g>
</svg>
