<svg xmlns="http://www.w3.org/2000/svg" xmlns:xlink="http://www.w3.org/1999/xlink" viewBox="0 0 37 24">
  <defs>
    <symbol id="a" data-name="alt" viewBox="0 0 34.5 23.5">
      <g>
        <rect x="0.8" y="0.8" width="33" height="22" rx="4" ry="4" fill="none" stroke="#001d26" stroke-miterlimit="10"/>
        <rect x="0.8" y="0.8" width="33" height="22" rx="4" ry="4" fill="none" stroke="#001d26" stroke-miterlimit="10" stroke-width="1.5"/>
      </g>
      <g>
        <path d="M12.8,18v-.9h-.1A3.3,3.3,0,0,1,10,18.2a2.5,2.5,0,0,1-2.7-2.6c0-2.2,1.9-3.3,5.2-3.3h0c0-.6-.2-1.6-1.8-1.6a4.5,4.5,0,0,0-2.4.7L7.9,9.8a6.6,6.6,0,0,1,3.2-.7c2.8,0,3.6,1.7,3.6,3.7v3.1a12.8,12.8,0,0,0,.1,2.1Zm-.3-4.3c-1.5,0-3,.4-3,1.7a1.1,1.1,0,0,0,1.2,1.2,1.8,1.8,0,0,0,1.8-1.2V13.7Z" fill="#001d26"/>
        <path d="M17,5.2h2.3V18H17Z" fill="#001d26"/>
        <path d="M24.2,6.8V9.3h2.1v1.6H24.2v3.9c0,1.1.3,1.6,1.1,1.6h.9V18l-1.6.2a2.7,2.7,0,0,1-1.9-.7A3.9,3.9,0,0,1,22,15V10.9H20.8V9.3H22v-2Z" fill="#001d26"/>
      </g>
    </symbol>
  </defs>
  <title>alt</title>
  <use width="34.5" height="23.5" transform="translate(1.3 0.3)" xlink:href="#a"/>
</svg>
