<?xml version="1.0" encoding="utf-8"?>
<!-- Generator: Adobe Illustrator 22.1.0, SVG Export Plug-In . SVG Version: 6.00 Build 0)  -->
<svg version="1.1" id="Layer_1" xmlns="http://www.w3.org/2000/svg" xmlns:xlink="http://www.w3.org/1999/xlink" x="0px" y="0px"
	 viewBox="0 0 17 22.6" style="enable-background:new 0 0 17 22.6;" xml:space="preserve">
<style type="text/css">
	.st0{fill:#001D26;}
</style>
<symbol  id="a" viewBox="-8.5 -11.3 17 22.6">
	<path class="st0" d="M-3.5-9.8C-3-9.8-2.5-9.5-2.5-9c0,0.1,0,0.1,0,0.2v4.1l0,0v4.2C-2.5-0.2-2.3,0-2,0l0,0c0.3,0,0.5-0.2,0.5-0.5
		v-4.2c0-0.5,0.5-1,1-1h0.2c0.5,0,1,0.5,1,1v1.1l0,0v3.1C0.7-0.2,0.9,0,1.2,0l0,0c0.3,0,0.5-0.2,0.5-0.5v-3.1C1.6-4.1,2-4.5,2.5-4.6
		c0.1,0,0.1,0,0.2,0h0.1c0.5-0.1,0.9,0.3,1,0.8c0,0.1,0,0.1,0,0.2v1.3l0,0v1.7c0,0.3,0.2,0.5,0.5,0.5l0,0c0.3,0,0.5-0.2,0.5-0.5
		v-1.5l0,0c0-0.6,0.4-1,1-1H6c0.6,0,1,0.4,1,1v5.6l0,0c0,1.4-0.5,2.7-1.4,3.8C5.5,7.4,5.5,7.5,5.5,7.6v1.7c0,0.3-0.2,0.5-0.5,0.5
		h-7.7c-0.2,0-0.4-0.3-0.4-0.5V7.6c0-0.2-0.1-0.3-0.2-0.4l-3.2-3.9C-6.9,2.8-7.1,2.1-7,1.5c0.1-0.7,0.4-1.3,1-1.7l0.4-0.3v2.1
		c0,0.3,0.2,0.5,0.5,0.5s0.5-0.2,0.5-0.5v-3.1l0,0v-7.3c-0.1-0.5,0.3-0.9,0.8-1C-3.7-9.8-3.7-9.8-3.5-9.8L-3.5-9.8 M-3.5-10.8
		L-3.5-10.8c-1.2,0-2.1,0.9-2.1,2v7l-0.6,0.5L-6.6-1C-7.4-0.5-7.9,0.4-8,1.3c-0.1,0.9,0.2,1.9,0.8,2.6l3.1,3.8v1.6
		c0,0.8,0.6,1.4,1.4,1.5H5c0.8,0,1.5-0.7,1.5-1.5V7.8C7.5,6.6,8,5.1,8,3.5v-5.6c0-1.1-0.9-2-2-2H5.8c-0.4,0-0.7,0.1-1,0.3
		c-0.1-1-1-1.8-2-1.8H2.7c-0.4,0-0.8,0.1-1.1,0.3c-0.3-0.8-1-1.4-1.9-1.4h-0.2c-0.4,0-0.7,0.1-1,0.3v-2.4
		C-1.5-9.9-2.4-10.8-3.5-10.8z"/>
	<path class="st0" d="M-3.5-9.8C-3-9.8-2.5-9.5-2.5-9c0,0.1,0,0.1,0,0.2v4.1l0,0v4.2C-2.5-0.2-2.3,0-2,0l0,0c0.3,0,0.5-0.2,0.5-0.5
		v-4.2c0-0.5,0.5-1,1-1h0.2c0.5,0,1,0.5,1,1v1.1l0,0v3.1C0.7-0.2,0.9,0,1.2,0l0,0c0.3,0,0.5-0.2,0.5-0.5v-3.1C1.6-4.1,2-4.5,2.5-4.6
		c0.1,0,0.1,0,0.2,0h0.1c0.5-0.1,0.9,0.3,1,0.8c0,0.1,0,0.1,0,0.2v1.3l0,0v1.7c0,0.3,0.2,0.5,0.5,0.5l0,0c0.3,0,0.5-0.2,0.5-0.5
		v-1.5l0,0c0-0.6,0.4-1,1-1H6c0.6,0,1,0.4,1,1v5.6l0,0c0,1.4-0.5,2.7-1.4,3.8C5.5,7.4,5.5,7.5,5.5,7.6v1.7c0,0.3-0.2,0.5-0.5,0.5
		h-7.7c-0.2,0-0.4-0.3-0.4-0.5V7.6c0-0.2-0.1-0.3-0.2-0.4l-3.2-3.9C-6.9,2.8-7.1,2.1-7,1.5c0.1-0.7,0.4-1.3,1-1.7l0.4-0.3v2.1
		c0,0.3,0.2,0.5,0.5,0.5s0.5-0.2,0.5-0.5v-3.1l0,0v-7.3c-0.1-0.5,0.3-0.9,0.8-1C-3.7-9.8-3.7-9.8-3.5-9.8L-3.5-9.8 M-3.5-11.3
		L-3.5-11.3c-1.5,0-2.6,1.1-2.6,2.5V-2l-0.4,0.3l-0.4,0.3c-0.9,0.7-1.4,1.6-1.6,2.7c-0.1,1,0.2,2.1,0.9,2.9l3,3.7v1.4
		c-0.1,1,0.7,1.9,1.8,2c0,0,0.1,0,0.1,0H5c1.1,0,2-0.9,2-2V8c0.9-1.3,1.5-2.9,1.5-4.5v-5.6c0-1.4-1.1-2.5-2.5-2.5H5.2
		c-0.4-1-1.3-1.6-2.4-1.6h-1c-0.5-0.7-1.3-1-2.1-1H-1v-1.6C-1-10.2-2.1-11.3-3.5-11.3z"/>
</symbol>
<title>click-07</title>
<use xlink:href="#a"  width="17" height="22.6" x="-8.5" y="-11.3" transform="matrix(0.9998 0 0 0.9998 8.5 11.2873)" style="overflow:visible;"/>
</svg>
