<svg xmlns="http://www.w3.org/2000/svg" viewBox="0 0 19 24">
  <title>click-06</title>
  <path d="M5.9,1.6A1.1,1.1,0,0,1,7,2.7V7.1H7v4.4a.6.6,0,0,0,.5.6h0a.6.6,0,0,0,.6-.6V7.1A1,1,0,0,1,9.1,6h.2a1,1,0,0,1,1,1.1V8.2h0v3.3a.6.6,0,0,0,.6.6h0a.6.6,0,0,0,.5-.6V8.2a1.1,1.1,0,0,1,1.1-1.1h.1a1.1,1.1,0,0,1,1.1,1.1V9.6h0v1.8a.6.6,0,0,0,.5.6h0a.6.6,0,0,0,.5-.6V9.8h0a1.1,1.1,0,0,1,1.1-1.1h.1A1.1,1.1,0,0,1,17,9.8v6h0a5.8,5.8,0,0,1-1.5,3.9c0,.1-.1.3-.1.4v1.8a.5.5,0,0,1-.5.5H6.8a.5.5,0,0,1-.5-.5V20c0-.1-.1-.2-.1-.3L2.8,15.5a2.2,2.2,0,0,1-.6-1.9,2.7,2.7,0,0,1,1-1.8l.5-.3v2.2a.5.5,0,0,0,.5.5.5.5,0,0,0,.5-.5V10.4h0V2.7A1.1,1.1,0,0,1,5.8,1.6h.1m0-1H5.8A2.2,2.2,0,0,0,3.7,2.7v7.5l-.6.5-.5.3A3.5,3.5,0,0,0,2,16.1l3.3,4.1v1.7a1.5,1.5,0,0,0,1.5,1.5h8.1a1.5,1.5,0,0,0,1.5-1.5V20.3A7.5,7.5,0,0,0,18,15.8v-6a2.1,2.1,0,0,0-2.1-2.1h-.1a1.5,1.5,0,0,0-1.1.4,2.2,2.2,0,0,0-2.1-2h-.1a2.1,2.1,0,0,0-1.2.4A2.1,2.1,0,0,0,9.3,5H9.1A2,2,0,0,0,8,5.3V2.7A2.1,2.1,0,0,0,5.9.6Z" fill="#001d26"/>
</svg>
