<svg xmlns="http://www.w3.org/2000/svg" xmlns:xlink="http://www.w3.org/1999/xlink" viewBox="0 0 105.44 24"><defs><symbol id="a" viewBox="0 0 16.98 22.58"><path d="M5,1.5a1,1,0,0,1,1,1V6.61H6v4.21a.5.5,0,0,0,.51.5h0a.5.5,0,0,0,.5-.5V6.61a1,1,0,0,1,1-1h.15a1,1,0,0,1,1,1V7.68h0v3.14a.5.5,0,0,0,.5.5h0a.5.5,0,0,0,.5-.5V7.68a1,1,0,0,1,1-1h.14a1,1,0,0,1,1,1v3.14a.5.5,0,0,0,.5.5h0a.5.5,0,0,0,.5-.5V9.18a1,1,0,0,1,1-1h.15a1,1,0,0,1,1,1v5.67h0a5.75,5.75,0,0,1-1.38,3.73.56.56,0,0,0-.13.35v1.65a.5.5,0,0,1-.5.5H5.85a.5.5,0,0,1-.5-.5V18.85a.51.51,0,0,0-.11-.31l-3.2-4a2.43,2.43,0,0,1,.42-3.46l.44-.33v2.09a.5.5,0,0,0,.5.5.5.5,0,0,0,.5-.5V9.78h0V2.5a1,1,0,0,1,1-1H5m0-1H4.9a2,2,0,0,0-2,2v7L2.29,10l-.43.33a3.44,3.44,0,0,0-.6,4.89L4.35,19v1.55a1.5,1.5,0,0,0,1.5,1.5h7.62a1.5,1.5,0,0,0,1.5-1.5V19.1a6.81,6.81,0,0,0,1.51-4.25V9.18a2,2,0,0,0-2-2h-.15a2,2,0,0,0-1,.27,2,2,0,0,0-2-1.77h-.14a2,2,0,0,0-1.1.33,2,2,0,0,0-1.9-1.4H8a2,2,0,0,0-1,.27V2.5a2,2,0,0,0-2-2Z" fill="#001d26"/><path d="M5,1.5a1,1,0,0,1,1,1V6.61H6v4.21a.5.5,0,0,0,.51.5h0a.5.5,0,0,0,.5-.5V6.61a1,1,0,0,1,1-1h.15a1,1,0,0,1,1,1V7.68h0v3.14a.5.5,0,0,0,.5.5h0a.5.5,0,0,0,.5-.5V7.68a1,1,0,0,1,1-1h.14a1,1,0,0,1,1,1v3.14a.5.5,0,0,0,.5.5h0a.5.5,0,0,0,.5-.5V9.18a1,1,0,0,1,1-1h.15a1,1,0,0,1,1,1v5.67h0a5.75,5.75,0,0,1-1.38,3.73.56.56,0,0,0-.13.35v1.65a.5.5,0,0,1-.5.5H5.85a.5.5,0,0,1-.5-.5V18.85a.51.51,0,0,0-.11-.31l-3.2-4a2.43,2.43,0,0,1,.42-3.46l.44-.33v2.09a.5.5,0,0,0,.5.5.5.5,0,0,0,.5-.5V9.78h0V2.5a1,1,0,0,1,1-1H5M5,0H4.9A2.5,2.5,0,0,0,2.4,2.5V9.28L2,9.59l-.43.33a3.93,3.93,0,0,0-.68,5.61l3,3.68v1.37a2,2,0,0,0,2,2h7.62a2,2,0,0,0,2-2v-1.3A7.32,7.32,0,0,0,17,14.85V9.18a2.5,2.5,0,0,0-2.5-2.5h-.15a2.52,2.52,0,0,0-.67.09,2.5,2.5,0,0,0-2.33-1.59h-.14a2.47,2.47,0,0,0-.86.15A2.5,2.5,0,0,0,8.19,4.11H8a2.73,2.73,0,0,0-.5,0V2.5A2.5,2.5,0,0,0,5,0Z" fill="#001d26"/></symbol></defs><title>kcmb-sh-al-osx-lm-03</title><use width="16.98" height="22.58" transform="translate(87.31 0.01)" xlink:href="#a"/><path d="M30.36,1.86h7.55l8.32,16.67h5.84v2.2H44.52L36.19,4.06H30.36Zm12.89,0h8.82v2.2H43.25Z" fill="#001d26"/><path d="M1.27,14.21,14.49,1,27.68,14.21h-6.6V21.6H7.86V14.21ZM14.49,4.11,6.57,12h3.51l0,7.39h8.81l0-7.39h3.48Z" fill="#001d26"/><path d="M66.32,10.32H64.18a4.09,4.09,0,0,1-3-1.26,4.07,4.07,0,0,1-1.24-3,4.09,4.09,0,0,1,1.26-3,4.29,4.29,0,0,1,6,0,4.08,4.08,0,0,1,1.25,3V8.2H70.6V6.07a4.12,4.12,0,0,1,1.27-3,4.26,4.26,0,0,1,6,0,4.15,4.15,0,0,1,1.24,3,4.15,4.15,0,0,1-1.26,3,4.15,4.15,0,0,1-3,1.24H72.72v2.14h2.14a4.07,4.07,0,0,1,3,1.26,4.19,4.19,0,0,1,1.24,3,4.26,4.26,0,0,1-7.3,3,4.07,4.07,0,0,1-1.24-3V14.62H68.44v2.14a4.08,4.08,0,0,1-1.27,3,4.27,4.27,0,0,1-6-6.07,4.15,4.15,0,0,1,3-1.24h2.14Zm0,4.28H64.16a2.08,2.08,0,0,0-1.51.62A2.12,2.12,0,0,0,62,16.72a2.08,2.08,0,0,0,.62,1.51,2.14,2.14,0,0,0,3,0,2,2,0,0,0,.63-1.5Zm0-6.41V6.05A2.15,2.15,0,0,0,64.2,3.9,2.15,2.15,0,0,0,62.07,6a2.05,2.05,0,0,0,.62,1.52,2,2,0,0,0,1.5.63Zm2.12,4.28h2.14V10.34H68.46Zm4.26,2.16v2.14a2,2,0,0,0,.62,1.5,2.13,2.13,0,1,0,1.53-3.63Zm0-6.41h2.14a2.06,2.06,0,0,0,1.52-.63A2,2,0,0,0,77,6.1a2,2,0,0,0-.62-1.51A2,2,0,0,0,74.89,4a2.13,2.13,0,0,0-2.15,2.13Z" fill="#001d26"/></svg>