<?xml version="1.0" encoding="utf-8"?>
<!-- Generator: Adobe Illustrator 22.1.0, SVG Export Plug-In . SVG Version: 6.00 Build 0)  -->
<svg version="1.1" id="Layer_1" xmlns="http://www.w3.org/2000/svg" xmlns:xlink="http://www.w3.org/1999/xlink" x="0px" y="0px"
	 viewBox="0 0 87 24" style="enable-background:new 0 0 87 24;" xml:space="preserve">
<style type="text/css">
	.st0{fill:#001D26;}
</style>
<g>
	<path class="st0" d="M31.5,0.5h-25C4,0.5,2,2.5,2,5v14c0,2.5,2,4.5,4.5,4.5h25c2.5,0,4.5-2,4.5-4.5V5C36,2.5,34,0.5,31.5,0.5z
		 M35,19c0,1.9-1.6,3.5-3.5,3.5h-25C4.6,22.5,3,20.9,3,19V5c0-1.9,1.6-3.5,3.5-3.5h25C33.4,1.5,35,3.1,35,5V19z"/>
	<path class="st0" d="M16.5,13c0-0.2,0-0.4,0-0.6c-0.2-1.9-1.8-3.2-3.7-3.1c-1.1,0-2.2,0.2-3.1,0.8l0.4,1.4c0.7-0.4,1.6-0.6,2.4-0.6
		c1.5,0,1.7,0.9,1.7,1.5v0.2C11,12.5,9,13.7,9,15.9C9,16,9,16,9,16.1c0.1,1.4,1.4,2.5,2.8,2.4c1,0,2-0.4,2.6-1.2l0.2,1h2
		c-0.1-0.7-0.1-1.4-0.1-2.1V13z M14.3,15.2c0,0.2,0,0.3-0.1,0.5c-0.3,0.7-0.9,1.2-1.7,1.2c-0.1,0-0.1,0-0.2,0
		c-0.7-0.1-1.1-0.6-1.1-1.3c0-1.3,1.5-1.6,3.1-1.6V15.2z"/>
	<rect x="18.8" y="5.5" class="st0" width="2.2" height="12.8"/>
	<path class="st0" d="M26,7l-2.2,0.5v2h-1.3v1.7h1.3v4.2c-0.1,0.9,0.2,1.7,0.7,2.4c0.5,0.5,1.2,0.8,1.9,0.8c0.6,0,1.1-0.1,1.6-0.3
		v-1.6h-0.9c-0.9,0-1.1-0.6-1.1-1.7v-3.8h2.1V9.5H26V7z"/>
	<path class="st0" d="M81,0.5H46c-2.5,0-4.5,2-4.5,4.5v14c0,2.5,2,4.5,4.5,4.5h35c2.5,0,4.5-2,4.5-4.5V5C85.5,2.5,83.5,0.5,81,0.5z
		 M84.5,19c0,1.9-1.6,3.5-3.5,3.5H46c-1.9,0-3.5-1.6-3.5-3.5V5c0-1.9,1.6-3.5,3.5-3.5h35c1.9,0,3.5,1.6,3.5,3.5V19z"/>
	<rect x="49.5" y="5.5" class="st0" width="2.2" height="12.8"/>
	<path class="st0" d="M64,9.3c-0.6,0-1.3,0.2-1.8,0.5c-0.4,0.3-0.7,0.7-1,1.1h-0.1c-0.4-1-1.4-1.6-2.4-1.6c-1.1-0.1-2.2,0.5-2.7,1.5
		h-0.1V9.5H54c0.1,0.9,0.1,1.7,0.1,2.6v6.2h2.2v-5.2c0-0.2,0-0.5,0.1-0.7c0.2-0.7,0.8-1.3,1.6-1.3c1,0,1.5,0.9,1.5,2.1v5.1h2.1V13
		c0-0.2,0.1-0.5,0.2-0.7c0.2-0.7,0.8-1.2,1.5-1.2c1.1,0,1.6,0.9,1.6,2.3v4.9h2v-5.2C66.9,10.3,65.5,9.3,64,9.3z"/>
	<path class="st0" d="M74.4,9.3c-1.1,0-2.1,0.5-2.8,1.4V5.5h-2.2v10.3c0,0.9-0.1,1.9-0.1,2.5h2V17c0.6,0.9,1.7,1.5,2.8,1.5
		c2,0,4-2,4-4.7S76.6,9.3,74.4,9.3z M73.6,16.7c-0.9,0-1.8-0.6-2-1.5v-0.5v-1.5c0-0.2,0-0.4,0.1-0.5c0.1-0.9,0.9-1.7,1.9-1.7
		c1.5,0,2.2,1.2,2.2,2.9C75.8,15.6,75,16.7,73.6,16.7z"/>
</g>
</svg>
