<?xml version="1.0" encoding="utf-8"?>
<!-- Generator: Adobe Illustrator 22.1.0, SVG Export Plug-In . SVG Version: 6.00 Build 0)  -->
<svg version="1.1" id="Layer_1" xmlns="http://www.w3.org/2000/svg" xmlns:xlink="http://www.w3.org/1999/xlink" x="0px" y="0px"
	 viewBox="0 0 112.3 23.6" style="enable-background:new 0 0 112.3 23.6;" xml:space="preserve">
<style type="text/css">
	.st0{fill:none;stroke:#001D26;stroke-miterlimit:10;}
	.st1{fill:none;stroke:#001D26;stroke-width:1.5;stroke-miterlimit:10;}
	.st2{fill:#001D26;}
</style>
<symbol  id="a" viewBox="-17.2 -11.8 34.5 23.5">
	<g>
		<path class="st0" d="M-12.5-11h25c2.2,0,4,1.8,4,4V7c0,2.2-1.8,4-4,4h-25c-2.2,0-4-1.8-4-4V-7C-16.5-9.2-14.7-11-12.5-11z"/>
		<path class="st1" d="M-12.5-11h25c2.2,0,4,1.8,4,4V7c0,2.2-1.8,4-4,4h-25c-2.2,0-4-1.8-4-4V-7C-16.5-9.2-14.7-11-12.5-11z"/>
	</g>
	<g>
		<path class="st2" d="M-4.5,6.2V5.3h-0.1c-0.7,0.8-1.7,1.2-2.7,1.1C-8.7,6.5-9.9,5.5-10,4.1c0-0.1,0-0.2,0-0.3
			c0-2.2,1.9-3.3,5.2-3.3l0,0c0-0.6-0.2-1.6-1.8-1.6c-0.9,0-1.7,0.2-2.4,0.7L-9.4-2c1-0.5,2.1-0.7,3.2-0.7C-3.4-2.7-2.6-1-2.6,1v3.1
			c0,0.7,0,1.4,0.1,2.1H-4.5z M-4.8,1.9c-1.5,0-3,0.4-3,1.7c-0.1,0.6,0.4,1.1,1,1.2c0.1,0,0.1,0,0.2,0c0.8,0,1.5-0.4,1.8-1.2V1.9z"
			/>
		<path class="st2" d="M-0.3-6.6H2V6.2h-2.3V-6.6z"/>
		<path class="st2" d="M6.9-5v2.5H9v1.6H6.9V3c0,1.1,0.3,1.6,1.1,1.6h0.9v1.6L7.3,6.4c-0.7,0-1.4-0.2-1.9-0.7C4.9,5,4.6,4.1,4.7,3.2
			v-4.1H3.5v-1.6h1.2v-2L6.9-5z"/>
	</g>
</symbol>
<symbol  id="b" viewBox="-8.5 -11.3 17 22.6">
	<path class="st2" d="M-3.5-9.8C-3-9.8-2.5-9.5-2.5-9c0,0.1,0,0.1,0,0.2v4.1l0,0v4.2C-2.5-0.2-2.3,0-2,0l0,0c0.3,0,0.5-0.2,0.5-0.5
		v-4.2c0-0.5,0.5-1,1-1h0.2c0.5,0,1,0.5,1,1v1.1l0,0v3.1C0.7-0.2,0.9,0,1.2,0l0,0c0.3,0,0.5-0.2,0.5-0.5v-3.1C1.6-4.1,2-4.5,2.5-4.6
		c0.1,0,0.1,0,0.2,0h0.1c0.5-0.1,0.9,0.3,1,0.8c0,0.1,0,0.1,0,0.2v1.3l0,0v1.7c0,0.3,0.2,0.5,0.5,0.5l0,0c0.3,0,0.5-0.2,0.5-0.5
		v-1.5l0,0c0-0.6,0.4-1,1-1H6c0.6,0,1,0.4,1,1v5.6l0,0c0,1.4-0.5,2.7-1.4,3.8C5.5,7.4,5.5,7.5,5.5,7.6v1.7c0,0.3-0.2,0.5-0.5,0.5
		h-7.7c-0.2,0-0.4-0.3-0.4-0.5V7.6c0-0.2-0.1-0.3-0.2-0.4l-3.2-3.9C-6.9,2.8-7.1,2.1-7,1.5c0.1-0.7,0.4-1.3,1-1.7l0.4-0.3v2.1
		c0,0.3,0.2,0.5,0.5,0.5s0.5-0.2,0.5-0.5v-3.1l0,0v-7.3c-0.1-0.5,0.3-0.9,0.8-1C-3.7-9.8-3.7-9.8-3.5-9.8L-3.5-9.8 M-3.5-10.8
		L-3.5-10.8c-1.2,0-2.1,0.9-2.1,2v7l-0.6,0.5L-6.6-1C-7.4-0.5-7.9,0.4-8,1.3c-0.1,0.9,0.2,1.9,0.8,2.6l3.1,3.8v1.6
		c0,0.8,0.6,1.4,1.4,1.5H5c0.8,0,1.5-0.7,1.5-1.5V7.8C7.5,6.6,8,5.1,8,3.5v-5.6c0-1.1-0.9-2-2-2H5.8c-0.4,0-0.7,0.1-1,0.3
		c-0.1-1-1-1.8-2-1.8H2.7c-0.4,0-0.8,0.1-1.1,0.3c-0.3-0.8-1-1.4-1.9-1.4h-0.2c-0.4,0-0.7,0.1-1,0.3v-2.4
		C-1.5-9.9-2.4-10.8-3.5-10.8z"/>
	<path class="st2" d="M-3.5-9.8C-3-9.8-2.5-9.5-2.5-9c0,0.1,0,0.1,0,0.2v4.1l0,0v4.2C-2.5-0.2-2.3,0-2,0l0,0c0.3,0,0.5-0.2,0.5-0.5
		v-4.2c0-0.5,0.5-1,1-1h0.2c0.5,0,1,0.5,1,1v1.1l0,0v3.1C0.7-0.2,0.9,0,1.2,0l0,0c0.3,0,0.5-0.2,0.5-0.5v-3.1C1.6-4.1,2-4.5,2.5-4.6
		c0.1,0,0.1,0,0.2,0h0.1c0.5-0.1,0.9,0.3,1,0.8c0,0.1,0,0.1,0,0.2v1.3l0,0v1.7c0,0.3,0.2,0.5,0.5,0.5l0,0c0.3,0,0.5-0.2,0.5-0.5
		v-1.5l0,0c0-0.6,0.4-1,1-1H6c0.6,0,1,0.4,1,1v5.6l0,0c0,1.4-0.5,2.7-1.4,3.8C5.5,7.4,5.5,7.5,5.5,7.6v1.7c0,0.3-0.2,0.5-0.5,0.5
		h-7.7c-0.2,0-0.4-0.3-0.4-0.5V7.6c0-0.2-0.1-0.3-0.2-0.4l-3.2-3.9C-6.9,2.8-7.1,2.1-7,1.5c0.1-0.7,0.4-1.3,1-1.7l0.4-0.3v2.1
		c0,0.3,0.2,0.5,0.5,0.5s0.5-0.2,0.5-0.5v-3.1l0,0v-7.3c-0.1-0.5,0.3-0.9,0.8-1C-3.7-9.8-3.7-9.8-3.5-9.8L-3.5-9.8 M-3.5-11.3
		L-3.5-11.3c-1.5,0-2.6,1.1-2.6,2.5V-2l-0.4,0.3l-0.4,0.3c-0.9,0.7-1.4,1.6-1.6,2.7c-0.1,1,0.2,2.1,0.9,2.9l3,3.7v1.4
		c-0.1,1,0.7,1.9,1.8,2c0,0,0.1,0,0.1,0H5c1.1,0,2-0.9,2-2V8c0.9-1.3,1.5-2.9,1.5-4.5v-5.6c0-1.4-1.1-2.5-2.5-2.5H5.2
		c-0.4-1-1.3-1.6-2.4-1.6h-1c-0.5-0.7-1.3-1-2.1-1H-1v-1.6C-1-10.2-2.1-11.3-3.5-11.3z"/>
</symbol>
<symbol  id="c" viewBox="-24.2 -11.8 48.5 23.5">
	<g>
		<path class="st0" d="M-19.5-11h39c2.2,0,4,1.8,4,4V7c0,2.2-1.8,4-4,4h-39c-2.2,0-4-1.8-4-4V-7C-23.5-9.2-21.7-11-19.5-11z"/>
		<path class="st1" d="M-19.5-11h39c2.2,0,4,1.8,4,4V7c0,2.2-1.8,4-4,4h-39c-2.2,0-4-1.8-4-4V-7C-23.5-9.2-21.7-11-19.5-11z"/>
	</g>
	<g>
		<path class="st2" d="M-16.3,4.2c0.7,0.4,1.4,0.6,2.2,0.6c1,0,1.4-0.4,1.4-0.9S-13,3-14.1,2.6S-16.5,1-16.5,0s1.3-2.7,3.3-2.7
			c0.8,0,1.6,0.1,2.3,0.5l-0.4,1.6c-0.6-0.4-1.2-0.5-1.9-0.5c-0.8,0-1.2,0.3-1.2,0.9c0,0.5,0.4,0.8,1.5,1.2s2.4,1.4,2.4,2.7
			s-1.3,2.7-3.6,2.7c-0.9,0-1.9-0.2-2.7-0.6L-16.3,4.2z"/>
		<path class="st2" d="M-8.7-6.6h2.2v5.3h0.1c0.2-0.5,0.6-0.8,1.1-1c0.4-0.3,1-0.4,1.5-0.4c1.5,0,3,1,3,3.8v5.1H-3V1.3
			C-3,0-3.4-0.9-4.7-0.9c-0.8,0-1.4,0.5-1.7,1.2C-6.5,0.5-6.5,0.8-6.5,1v5.2h-2.2V-6.6z"/>
		<path class="st2" d="M3.9-5c0,0.7-0.5,1.2-1.2,1.2C2-3.8,1.5-4.3,1.5-5c0-0.7,0.5-1.2,1.2-1.2c0.6-0.1,1.1,0.4,1.2,1
			C3.9-5.1,3.9-5.1,3.9-5z M1.6,6.2v-8.7h2.2v8.7H1.6z"/>
		<path class="st2" d="M6.4,6.2v-7.1H5.3v-1.6h1.1v-0.4c0-1.1,0.4-2.2,1.1-3C8.1-6.4,9-6.7,9.8-6.7c0.5-0.1,1,0,1.4,0.2v1.7l-1-0.2
			C9.1-5,8.7-4.1,8.7-3v0.5h2v1.6h-2v7.1H6.4z"/>
		<path class="st2" d="M14.7-5v2.5h2.1v1.6h-2.1V3c0,1.1,0.3,1.6,1.1,1.6h0.9v1.6l-1.6,0.2c-0.7,0-1.4-0.2-1.9-0.7
			c-0.5-0.7-0.7-1.6-0.6-2.5v-4.1h-1.3v-1.6h1.3v-2L14.7-5z"/>
	</g>
</symbol>
<title>kcmb-sh-al-lm-02</title>
<use xlink:href="#a"  width="34.5" height="23.5" x="-17.2" y="-11.8" transform="matrix(1 0 0 1 70.75 11.85)" style="overflow:visible;"/>
<use xlink:href="#b"  width="17" height="22.6" x="-8.5" y="-11.3" transform="matrix(0.9998 0 0 0.9998 103.8 11.59)" style="overflow:visible;"/>
<use xlink:href="#c"  width="48.5" height="23.5" x="-24.2" y="-11.8" transform="matrix(1 0 0 1 24.25 11.75)" style="overflow:visible;"/>
</svg>
