<svg xmlns="http://www.w3.org/2000/svg" xmlns:xlink="http://www.w3.org/1999/xlink" viewBox="0 0 105.44 24"><defs><symbol id="a" viewBox="0 0 16.98 22.58"><path d="M5,1.5a1,1,0,0,1,1,1V6.61H6v4.21a.5.5,0,0,0,.51.5h0a.5.5,0,0,0,.5-.5V6.61a1,1,0,0,1,1-1h.15a1,1,0,0,1,1,1V7.68h0v3.14a.5.5,0,0,0,.5.5h0a.5.5,0,0,0,.5-.5V7.68a1,1,0,0,1,1-1h.14a1,1,0,0,1,1,1v3.14a.5.5,0,0,0,.5.5h0a.5.5,0,0,0,.5-.5V9.18a1,1,0,0,1,1-1h.15a1,1,0,0,1,1,1v5.67h0a5.75,5.75,0,0,1-1.38,3.73.56.56,0,0,0-.13.35v1.65a.5.5,0,0,1-.5.5H5.85a.5.5,0,0,1-.5-.5V18.85a.51.51,0,0,0-.11-.31l-3.2-4a2.43,2.43,0,0,1,.42-3.46l.44-.33v2.09a.5.5,0,0,0,.5.5.5.5,0,0,0,.5-.5V9.78h0V2.5a1,1,0,0,1,1-1H5m0-1H4.9a2,2,0,0,0-2,2v7L2.29,10l-.43.33a3.44,3.44,0,0,0-.6,4.89L4.35,19v1.55a1.5,1.5,0,0,0,1.5,1.5h7.62a1.5,1.5,0,0,0,1.5-1.5V19.1a6.81,6.81,0,0,0,1.51-4.25V9.18a2,2,0,0,0-2-2h-.15a2,2,0,0,0-1,.27,2,2,0,0,0-2-1.77h-.14a2,2,0,0,0-1.1.33,2,2,0,0,0-1.9-1.4H8a2,2,0,0,0-1,.27V2.5a2,2,0,0,0-2-2Z" fill="#001d26"/><path d="M5,1.5a1,1,0,0,1,1,1V6.61H6v4.21a.5.5,0,0,0,.51.5h0a.5.5,0,0,0,.5-.5V6.61a1,1,0,0,1,1-1h.15a1,1,0,0,1,1,1V7.68h0v3.14a.5.5,0,0,0,.5.5h0a.5.5,0,0,0,.5-.5V7.68a1,1,0,0,1,1-1h.14a1,1,0,0,1,1,1v3.14a.5.5,0,0,0,.5.5h0a.5.5,0,0,0,.5-.5V9.18a1,1,0,0,1,1-1h.15a1,1,0,0,1,1,1v5.67h0a5.75,5.75,0,0,1-1.38,3.73.56.56,0,0,0-.13.35v1.65a.5.5,0,0,1-.5.5H5.85a.5.5,0,0,1-.5-.5V18.85a.51.51,0,0,0-.11-.31l-3.2-4a2.43,2.43,0,0,1,.42-3.46l.44-.33v2.09a.5.5,0,0,0,.5.5.5.5,0,0,0,.5-.5V9.78h0V2.5a1,1,0,0,1,1-1H5M5,0H4.9A2.5,2.5,0,0,0,2.4,2.5V9.28L2,9.59l-.43.33a3.93,3.93,0,0,0-.68,5.61l3,3.68v1.37a2,2,0,0,0,2,2h7.62a2,2,0,0,0,2-2v-1.3A7.32,7.32,0,0,0,17,14.85V9.18a2.5,2.5,0,0,0-2.5-2.5h-.15a2.52,2.52,0,0,0-.67.09,2.5,2.5,0,0,0-2.33-1.59h-.14a2.47,2.47,0,0,0-.86.15A2.5,2.5,0,0,0,8.19,4.11H8a2.73,2.73,0,0,0-.5,0V2.5A2.5,2.5,0,0,0,5,0Z" fill="#001d26"/></symbol></defs><title>kcmb-sh-al-win-lm-03</title><use width="16.98" height="22.58" transform="translate(87.31 1.34)" xlink:href="#a"/><path d="M30.36,3.2h7.55l8.32,16.66h5.84v2.21H44.52L36.19,5.39H30.36Zm12.89,0h8.82V5.39H43.25Z" fill="#001d26"/><path d="M1.27,15.54,14.49,2.33,27.68,15.54h-6.6v7.39H7.86V15.54ZM14.49,5.44,6.57,13.33h3.51l0,7.4h8.81l0-7.4h3.48Z" fill="#001d26"/><path d="M64.48,14.24a7.4,7.4,0,0,1-3.61-1L60.45,13V2.91l1.18.63c2.55,1.37,3.91.85,6.38-.09L69.25,3l1.06-.38v10l-.52.19-1.22.46A11.46,11.46,0,0,1,64.48,14.24ZM62,12c2.29,1.1,3.64.59,6-.3l.71-.27V4.88l-.15.06c-2.28.87-4,1.53-6.53.54Z" fill="#001d26"/><path d="M68.72,13.14v-10L69.25,3l1.21-.45c2.62-1,4.51-1.72,7.7,0l.42.22V12.84l-1.17-.63c-2.55-1.38-3.91-.86-6.38.08l-1.24.46Zm1.59-8.85v6.57l.15,0c2.28-.88,4-1.53,6.53-.55V3.72c-2.29-1.1-3.63-.59-6,.3Z" fill="#001d26"/><path d="M64.48,22.51a7.51,7.51,0,0,1-3.61-1l-.42-.22V11.17l1.18.63c2.55,1.38,3.91.86,6.38-.08l1.24-.46,1.06-.38v9.95l-.52.19-1.21.45A11.38,11.38,0,0,1,64.48,22.51ZM62,20.29c2.29,1.1,3.64.59,6-.3l.71-.27V13.15l-.15.06c-2.28.87-4,1.52-6.53.54Z" fill="#001d26"/><path d="M68.72,21.4V11.45l.53-.19,1.21-.45c2.62-1,4.51-1.73,7.7,0l.42.22V21.11l-1.17-.63c-2.55-1.38-3.91-.86-6.38.08L69.79,21Zm1.59-8.84v6.57l.15-.06c2.28-.87,4-1.53,6.53-.54V12c-2.29-1.1-3.63-.59-6,.3Z" fill="#001d26"/></svg>