<?xml version="1.0" encoding="utf-8"?>
<!-- Generator: Adobe Illustrator 22.1.0, SVG Export Plug-In . SVG Version: 6.00 Build 0)  -->
<svg version="1.1" id="Layer_1" xmlns="http://www.w3.org/2000/svg" xmlns:xlink="http://www.w3.org/1999/xlink" x="0px" y="0px"
	 viewBox="0 0 140 24" style="enable-background:new 0 0 140 24;" xml:space="preserve">
<style type="text/css">
	.st0{fill:#001D26;}
</style>
<g>
	<path class="st0" d="M84.5,0.5h-25C57,0.5,55,2.5,55,5v14c0,2.5,2,4.5,4.5,4.5h25c2.5,0,4.5-2,4.5-4.5V5C89,2.5,87,0.5,84.5,0.5z
		 M88,19c0,1.9-1.6,3.5-3.5,3.5h-25c-1.9,0-3.5-1.6-3.5-3.5V5c0-1.9,1.6-3.5,3.5-3.5h25C86.4,1.5,88,3.1,88,5V19z"/>
	<path class="st0" d="M69.5,13c0-0.2,0-0.4,0-0.6c-0.2-1.9-1.8-3.2-3.7-3.1c-1.1,0-2.2,0.2-3.1,0.8l0.4,1.4c0.7-0.4,1.6-0.6,2.4-0.6
		c1.5,0,1.7,0.9,1.7,1.5v0.2C64,12.5,62,13.7,62,15.9c0,0.1,0,0.1,0,0.2c0.1,1.4,1.4,2.5,2.8,2.4c1,0,2-0.4,2.6-1.2l0.2,1h2
		c-0.1-0.7-0.1-1.4-0.1-2.1V13z M67.3,15.2c0,0.2,0,0.3-0.1,0.5c-0.3,0.7-0.9,1.2-1.7,1.2c-0.1,0-0.1,0-0.2,0
		c-0.7-0.1-1.1-0.6-1.1-1.3c0-1.3,1.5-1.6,3.1-1.6V15.2z"/>
	<rect x="71.8" y="5.5" class="st0" width="2.2" height="12.8"/>
	<path class="st0" d="M79,7l-2.2,0.5v2h-1.3v1.7h1.3v4.2c-0.1,0.9,0.2,1.7,0.7,2.4c0.5,0.5,1.2,0.8,1.9,0.8c0.6,0,1.1-0.1,1.6-0.3
		v-1.6h-0.9c-0.9,0-1.1-0.6-1.1-1.7v-3.8h2.1V9.5H79V7z"/>
	<path class="st0" d="M134,0.5H99c-2.5,0-4.5,2-4.5,4.5v14c0,2.5,2,4.5,4.5,4.5h35c2.5,0,4.5-2,4.5-4.5V5
		C138.5,2.5,136.5,0.5,134,0.5z M137.5,19c0,1.9-1.6,3.5-3.5,3.5H99c-1.9,0-3.5-1.6-3.5-3.5V5c0-1.9,1.6-3.5,3.5-3.5h35
		c1.9,0,3.5,1.6,3.5,3.5V19z"/>
	<rect x="102.5" y="5.5" class="st0" width="2.2" height="12.8"/>
	<path class="st0" d="M117,9.3c-0.6,0-1.3,0.2-1.8,0.5c-0.4,0.3-0.7,0.7-1,1.1h-0.1c-0.4-1-1.4-1.6-2.4-1.6
		c-1.1-0.1-2.2,0.5-2.7,1.5h-0.1V9.5H107c0.1,0.9,0.1,1.7,0.1,2.6v6.2h2.2v-5.2c0-0.2,0-0.5,0.1-0.7c0.2-0.7,0.8-1.3,1.6-1.3
		c1,0,1.5,0.9,1.5,2.1v5.1h2.1V13c0-0.2,0.1-0.5,0.2-0.7c0.2-0.7,0.8-1.2,1.5-1.2c1.1,0,1.6,0.9,1.6,2.3v4.9h2v-5.2
		C119.9,10.3,118.5,9.3,117,9.3z"/>
	<path class="st0" d="M127.4,9.3c-1.1,0-2.1,0.5-2.8,1.4V5.5h-2.2v10.3c0,0.9-0.1,1.9-0.1,2.5h2V17c0.6,0.9,1.7,1.5,2.8,1.5
		c2,0,4-2,4-4.7S129.6,9.3,127.4,9.3z M126.6,16.7c-0.9,0-1.8-0.6-2-1.5v-0.5v-1.5c0-0.2,0-0.4,0.1-0.5c0.1-0.9,0.9-1.7,1.9-1.7
		c1.5,0,2.2,1.2,2.2,2.9C128.8,15.6,128,16.7,126.6,16.7z"/>
	<path class="st0" d="M45,0.5H6c-2.5,0-4.5,2-4.5,4.5v14c0,2.5,2,4.5,4.5,4.5h39c2.5,0,4.5-2,4.5-4.5V5C49.5,2.5,47.5,0.5,45,0.5z
		 M48.5,19c0,1.9-1.6,3.5-3.5,3.5H6c-1.9,0-3.5-1.6-3.5-3.5V5c0-1.9,1.6-3.5,3.5-3.5h39c1.9,0,3.5,1.6,3.5,3.5V19z"/>
	<path class="st0" d="M12.7,13c-1.1-0.4-1.5-0.7-1.5-1.2s0.4-0.9,1.2-0.9c0.6,0,1.3,0.2,1.8,0.5l0.5-1.6c-0.8-0.3-1.6-0.5-2.4-0.5
		c-2,0-3.3,1.8-3.3,2.8s1.3,2.1,2.4,2.5c1.1,0.4,1.5,0.7,1.5,1.3c0,0.6-0.4,1-1.4,1c-0.8,0-1.6-0.2-2.3-0.7l-0.4,1.7
		c0.8,0.4,1.8,0.6,2.7,0.6c2.3,0,3.5-1.5,3.5-2.8S13.8,13.4,12.7,13z"/>
	<path class="st0" d="M21.7,9.3c-0.5,0-1,0.2-1.5,0.4c-0.4,0.3-0.8,0.6-1.1,1V5.5h-2.3v12.8h2.3V13c0-0.2,0-0.4,0.1-0.6
		c0.2-0.8,0.9-1.3,1.7-1.3c1.2,0,1.7,1,1.7,2.3v4.9h2.2v-5.2C24.8,10.3,23.2,9.3,21.7,9.3z"/>
	<rect x="27.1" y="9.5" class="st0" width="2.3" height="8.8"/>
	<path class="st0" d="M28.3,5.9L28.3,5.9c-0.8,0-1.3,0.5-1.3,1.2c0,0.7,0.5,1.2,1.2,1.2h0.1c0.7,0,1.2-0.5,1.2-1.2
		C29.5,6.4,29,5.9,28.3,5.9z"/>
	<path class="st0" d="M35.7,7.2h0.9l0.2-1.7l-1.5-0.2c-0.8,0-1.6,0.3-2.2,0.8c-0.8,0.8-1.2,1.9-1.1,3v0.4h-1.2v1.7H32v7.1h2.2v-7.1
		h1.9V9.5h-1.9V9.2C34.2,8.1,34.6,7.2,35.7,7.2z"/>
	<path class="st0" d="M40.3,7l-2.2,0.5v2h-1.3v1.7h1.3v4.2c-0.1,0.9,0.2,1.7,0.7,2.4c0.5,0.5,1.2,0.8,1.9,0.8c0.6,0,1.1-0.1,1.6-0.3
		v-1.6h-0.9c-0.9,0-1.1-0.6-1.1-1.7v-3.8h2.1V9.5h-2.1V7z"/>
</g>
</svg>
