<svg xmlns="http://www.w3.org/2000/svg" xmlns:xlink="http://www.w3.org/1999/xlink" viewBox="0 0 53.07 24"><defs><symbol id="a" viewBox="0 0 16.98 22.58"><path d="M5,1.5a1,1,0,0,1,1,1V6.61H6v4.21a.5.5,0,0,0,.51.5h0a.5.5,0,0,0,.5-.5V6.61a1,1,0,0,1,1-1h.15a1,1,0,0,1,1,1V7.68h0v3.14a.5.5,0,0,0,.5.5h0a.5.5,0,0,0,.5-.5V7.68a1,1,0,0,1,1-1h.14a1,1,0,0,1,1,1v3.14a.5.5,0,0,0,.5.5h0a.5.5,0,0,0,.5-.5V9.18a1,1,0,0,1,1-1h.15a1,1,0,0,1,1,1v5.67h0a5.75,5.75,0,0,1-1.38,3.73.56.56,0,0,0-.13.35v1.65a.5.5,0,0,1-.5.5H5.85a.5.5,0,0,1-.5-.5V18.85a.51.51,0,0,0-.11-.31l-3.2-4a2.43,2.43,0,0,1,.42-3.46l.44-.33v2.09a.5.5,0,0,0,.5.5.5.5,0,0,0,.5-.5V9.78h0V2.5a1,1,0,0,1,1-1H5m0-1H4.9a2,2,0,0,0-2,2v7L2.29,10l-.43.33a3.44,3.44,0,0,0-.6,4.89L4.35,19v1.55a1.5,1.5,0,0,0,1.5,1.5h7.62a1.5,1.5,0,0,0,1.5-1.5V19.1a6.81,6.81,0,0,0,1.51-4.25V9.18a2,2,0,0,0-2-2h-.15a2,2,0,0,0-1,.27,2,2,0,0,0-2-1.77h-.14a2,2,0,0,0-1.1.33,2,2,0,0,0-1.9-1.4H8a2,2,0,0,0-1,.27V2.5a2,2,0,0,0-2-2Z" fill="#001d26"/><path d="M5,1.5a1,1,0,0,1,1,1V6.61H6v4.21a.5.5,0,0,0,.51.5h0a.5.5,0,0,0,.5-.5V6.61a1,1,0,0,1,1-1h.15a1,1,0,0,1,1,1V7.68h0v3.14a.5.5,0,0,0,.5.5h0a.5.5,0,0,0,.5-.5V7.68a1,1,0,0,1,1-1h.14a1,1,0,0,1,1,1v3.14a.5.5,0,0,0,.5.5h0a.5.5,0,0,0,.5-.5V9.18a1,1,0,0,1,1-1h.15a1,1,0,0,1,1,1v5.67h0a5.75,5.75,0,0,1-1.38,3.73.56.56,0,0,0-.13.35v1.65a.5.5,0,0,1-.5.5H5.85a.5.5,0,0,1-.5-.5V18.85a.51.51,0,0,0-.11-.31l-3.2-4a2.43,2.43,0,0,1,.42-3.46l.44-.33v2.09a.5.5,0,0,0,.5.5.5.5,0,0,0,.5-.5V9.78h0V2.5a1,1,0,0,1,1-1H5M5,0H4.9A2.5,2.5,0,0,0,2.4,2.5V9.28L2,9.59l-.43.33a3.93,3.93,0,0,0-.68,5.61l3,3.68v1.37a2,2,0,0,0,2,2h7.62a2,2,0,0,0,2-2v-1.3A7.32,7.32,0,0,0,17,14.85V9.18a2.5,2.5,0,0,0-2.5-2.5h-.15a2.52,2.52,0,0,0-.67.09,2.5,2.5,0,0,0-2.33-1.59h-.14a2.47,2.47,0,0,0-.86.15A2.5,2.5,0,0,0,8.19,4.11H8a2.73,2.73,0,0,0-.5,0V2.5A2.5,2.5,0,0,0,5,0Z" fill="#001d26"/></symbol></defs><title>kcmb-sh-lm-03</title><use width="16.98" height="22.58" transform="translate(35.36 0.71)" xlink:href="#a"/><path d="M1.26,14.91,14.48,1.7l13.2,13.21H21.07V22.3H7.85l0-7.39ZM14.48,4.81,6.57,12.7h3.5v7.39h8.81V12.7h3.48Z" fill="#001d26"/></svg>