<?xml version="1.0" encoding="utf-8"?>
<!-- Generator: Adobe Illustrator 22.1.0, SVG Export Plug-In . SVG Version: 6.00 Build 0)  -->
<svg version="1.1" id="Layer_1" xmlns="http://www.w3.org/2000/svg" xmlns:xlink="http://www.w3.org/1999/xlink" x="0px" y="0px"
	 viewBox="0 0 53 24" style="enable-background:new 0 0 53 24;" xml:space="preserve">
<style type="text/css">
	.st0{fill:#001D26;}
</style>
<g id="a">
	<path class="st0" d="M44,23.5H9c-2.5,0-4.5-2-4.5-4.5V5c0-2.5,2-4.5,4.5-4.5h35c2.5,0,4.5,2,4.5,4.5v14
		C48.5,21.5,46.5,23.5,44,23.5z M9,1.5C7.1,1.5,5.5,3.1,5.5,5v14c0,1.9,1.6,3.5,3.5,3.5h35c1.9,0,3.5-1.6,3.5-3.5V5
		c0-1.9-1.6-3.5-3.5-3.5H9z"/>
	<path class="st0" d="M12.5,18.3h2.2V5.5h-2.2V18.3z"/>
	<path class="st0" d="M17.1,18.3h2.2v-5.2c0-0.2,0-0.5,0.1-0.7c0.2-0.7,0.8-1.3,1.6-1.3c1,0,1.5,0.9,1.5,2.1v5.1h2.1V13
		c0-0.2,0.1-0.5,0.2-0.7c0.2-0.7,0.8-1.2,1.5-1.2c1.1,0,1.6,0.9,1.6,2.3v4.9h2v-5.2c0-2.8-1.4-3.8-2.9-3.8c-0.6,0-1.3,0.2-1.8,0.5
		c-0.4,0.3-0.7,0.7-1,1.1h-0.1c-0.4-1-1.4-1.6-2.4-1.6c-1.1-0.1-2.2,0.5-2.7,1.5h-0.1V9.5H17c0.1,0.9,0.1,1.7,0.1,2.6V18.3z"/>
	<path class="st0" d="M34.3,18.3V17l0,0c0.6,0.9,1.7,1.5,2.8,1.5c2,0,4-2,4-4.7s-1.5-4.5-3.7-4.5c-1.1,0-2.1,0.5-2.8,1.4l0,0V5.5
		h-2.2v10.3c0,0.9-0.1,1.9-0.1,2.5H34.3z M34.6,13.2c0-0.2,0-0.4,0.1-0.5c0.1-0.9,0.9-1.7,1.9-1.7c1.5,0,2.2,1.2,2.2,2.9
		s-0.8,2.8-2.2,2.8c-0.9,0-1.8-0.6-2-1.5v-0.5V13.2z"/>
</g>
</svg>
