<svg xmlns="http://www.w3.org/2000/svg" xmlns:xlink="http://www.w3.org/1999/xlink" viewBox="0 0 52 24">
  <defs>
    <symbol id="a" data-name="shift" viewBox="0 0 48.5 23.5">
      <g>
        <rect x="0.8" y="0.8" width="47" height="22" rx="4" ry="4" fill="none" stroke="#001d26" stroke-miterlimit="10"/>
        <rect x="0.8" y="0.8" width="47" height="22" rx="4" ry="4" fill="none" stroke="#001d26" stroke-miterlimit="10" stroke-width="1.5"/>
      </g>
      <g>
        <path d="M8,16a4.8,4.8,0,0,0,2.2.6c1,0,1.4-.4,1.4-.9s-.3-.9-1.4-1.3-2.4-1.6-2.4-2.6,1.3-2.7,3.3-2.7a4.6,4.6,0,0,1,2.3.5L13,11.2a3.3,3.3,0,0,0-1.9-.5q-1.2,0-1.2.9c0,.5.4.8,1.5,1.2s2.4,1.4,2.4,2.7-1.3,2.7-3.6,2.7a5.4,5.4,0,0,1-2.7-.6Z" fill="#001d26"/>
        <path d="M15.6,5.2h2.2v5.3h.1a2.2,2.2,0,0,1,1.1-1,2.4,2.4,0,0,1,1.5-.4c1.5,0,3,1,3,3.8V18H21.3V13.1c0-1.3-.4-2.2-1.7-2.2a1.9,1.9,0,0,0-1.7,1.2,1.5,1.5,0,0,0-.1.7V18H15.6Z" fill="#001d26"/>
        <path d="M28.2,6.8a1.2,1.2,0,0,1-2.4,0A1.2,1.2,0,0,1,27,5.6,1.1,1.1,0,0,1,28.2,6.8ZM25.9,18V9.3h2.2V18Z" fill="#001d26"/>
        <path d="M30.7,18V10.9H29.6V9.3h1.1V8.9a4.4,4.4,0,0,1,1.1-3,3.4,3.4,0,0,1,2.3-.8,2.8,2.8,0,0,1,1.4.2V7l-1-.2c-1.1,0-1.5.9-1.5,2v.5h2v1.6H33V18Z" fill="#001d26"/>
        <path d="M39,6.8V9.3h2.1v1.6H39v3.9c0,1.1.3,1.6,1.1,1.6H41V18l-1.6.2a2.7,2.7,0,0,1-1.9-.7,4,4,0,0,1-.6-2.5V10.9H35.6V9.3h1.3v-2Z" fill="#001d26"/>
      </g>
    </symbol>
  </defs>
  <title>shift</title>
  <use width="48.5" height="23.5" transform="translate(1.8 0.2)" xlink:href="#a"/>
</svg>
