<?xml version="1.0" encoding="utf-8"?>
<!-- Generator: Adobe Illustrator 22.1.0, SVG Export Plug-In . SVG Version: 6.00 Build 0)  -->
<svg version="1.1" id="Layer_1" xmlns="http://www.w3.org/2000/svg" xmlns:xlink="http://www.w3.org/1999/xlink" x="0px" y="0px"
	 viewBox="0 0 57 24" style="enable-background:new 0 0 57 24;" xml:space="preserve">
<style type="text/css">
	.st0{fill:#001D26;}
</style>
<g id="a">
	<path class="st0" d="M48,23.5H9c-2.5,0-4.5-2-4.5-4.5V5c0-2.5,2-4.5,4.5-4.5h39c2.5,0,4.5,2,4.5,4.5v14
		C52.5,21.5,50.5,23.5,48,23.5z M9,1.5C7.1,1.5,5.5,3.1,5.5,5v14c0,1.9,1.6,3.5,3.5,3.5h39c1.9,0,3.5-1.6,3.5-3.5V5
		c0-1.9-1.6-3.5-3.5-3.5H9z"/>
	<path class="st0" d="M11.8,17.9c0.8,0.4,1.8,0.6,2.7,0.6c2.3,0,3.5-1.5,3.5-2.8s-1.2-2.3-2.3-2.7s-1.5-0.7-1.5-1.2s0.4-0.9,1.2-0.9
		c0.6,0,1.3,0.2,1.8,0.5l0.5-1.6c-0.8-0.3-1.6-0.5-2.4-0.5c-2,0-3.3,1.8-3.3,2.8s1.3,2.1,2.4,2.5s1.5,0.7,1.5,1.3s-0.4,1-1.4,1
		c-0.8,0-1.6-0.2-2.3-0.7L11.8,17.9z"/>
	<path class="st0" d="M19.8,18.3h2.3V13c0-0.2,0-0.4,0.1-0.6c0.2-0.8,0.9-1.3,1.7-1.3c1.2,0,1.7,1,1.7,2.3v4.9h2.2v-5.2
		c0-2.8-1.6-3.8-3.1-3.8c-0.5,0-1,0.2-1.5,0.4c-0.4,0.3-0.8,0.6-1.1,1l0,0V5.5h-2.3V18.3z"/>
	<path class="st0" d="M32.5,7.1c0-0.7-0.5-1.2-1.2-1.2c0,0-0.1,0-0.1,0c-0.7,0-1.2,0.5-1.2,1.2v0c0,0.7,0.5,1.2,1.2,1.2
		c0,0,0.1,0,0.1,0C32,8.3,32.5,7.8,32.5,7.1L32.5,7.1z M32.4,18.3V9.5h-2.3v8.8H32.4z"/>
	<path class="st0" d="M37.2,18.3v-7.1h1.9V9.5h-1.9V9.2c0-1.1,0.4-2,1.5-2h0.9l0.2-1.7l-1.5-0.2c-0.8,0-1.6,0.3-2.2,0.8
		c-0.8,0.8-1.2,1.9-1.1,3v0.4h-1.2v1.7H35v7.1H37.2z"/>
	<path class="st0" d="M41.1,7.5v2h-1.3v1.7h1.3v4.2c-0.1,0.9,0.2,1.7,0.7,2.4c0.5,0.5,1.2,0.8,1.9,0.8c0.6,0,1.1-0.1,1.6-0.3v-1.6
		h-0.9c-0.9,0-1.1-0.6-1.1-1.7v-3.8h2.1V9.5h-2.1V7L41.1,7.5z"/>
</g>
</svg>
