<svg xmlns="http://www.w3.org/2000/svg" viewBox="0 0 99.4 96.9">
  <title>am2-app-icon</title>
  <g>
    <path d="M17.3,3.1C5.7,3.1,3,10,3,21.7V78.3c0,11.6,3.6,15.5,15.2,15.5H80.8c11.6,0,15.5-3.9,15.5-15.5V19.5c0-11.6-4.3-16.4-16-16.4Z" fill="#001d26"/>
    <path d="M0,17.8V79.2A17.3,17.3,0,0,0,17.3,96.9H81.6A17.8,17.8,0,0,0,99.4,79.2V17.7A17.8,17.8,0,0,0,81.6,0H17.3A17.3,17.3,0,0,0,0,17.7ZM80.3,4.2c8,0,14.9,6.5,14.9,14.4V77.5c0,7.9-6.4,15.2-14.3,15.2H18.5A14.6,14.6,0,0,1,4.2,78.1V19.4c0-7.9,6.4-15.2,14.3-15.2Z" fill="#00c8ff"/>
  </g>
  <g>
    <g>
      <path d="M30,80.9A12.9,12.9,0,1,1,42.9,68,12.8,12.8,0,0,1,30,80.9ZM30,59a9,9,0,1,0,9,9A9,9,0,0,0,30,59Z" fill="#ddd"/>
      <g>
        <path d="M30,80.9A12.9,12.9,0,1,1,42.9,68,12.8,12.8,0,0,1,30,80.9ZM30,59a9,9,0,1,0,9,9A9,9,0,0,0,30,59Z" fill="#ddd"/>
        <path d="M30,80.9A12.9,12.9,0,1,1,42.9,68,12.8,12.8,0,0,1,30,80.9ZM30,59a9,9,0,1,0,9,9A9,9,0,0,0,30,59Z" fill="#00c8ff"/>
      </g>
      <g>
        <g>
          <path d="M27,49.6,38.1,38.5A16.9,16.9,0,0,0,27,49.6Z" fill="#ddd"/>
          <path d="M42.3,40.7l-16,16a15.7,15.7,0,0,0,.4,2.3L42.8,42.9A14.2,14.2,0,0,1,42.3,40.7Z" fill="#ddd"/>
          <path d="M44.9,47.3,28.6,63.5c.4.6.7,1.2,1.1,1.7L46,48.9Z" fill="#ddd"/>
          <path d="M49.2,52.1,32.9,68.4l1.7,1.1L50.9,53.2Z" fill="#ddd"/>
          <path d="M55.2,55.2,39.1,71.3l2.4.5,15.9-16A9,9,0,0,1,55.2,55.2Z" fill="#ddd"/>
          <path d="M59.5,60.1,48.6,71A17.1,17.1,0,0,0,59.5,60.1Z" fill="#ddd"/>
        </g>
        <g>
          <path d="M27,49.6,38.1,38.5A16.9,16.9,0,0,0,27,49.6Z" fill="#caf1fe"/>
          <path d="M42.3,40.7l-16,16a15.7,15.7,0,0,0,.4,2.3L42.8,42.9A14.2,14.2,0,0,1,42.3,40.7Z" fill="#caf1fe"/>
          <path d="M44.9,47.3,28.6,63.5c.4.6.7,1.2,1.1,1.7L46,48.9Z" fill="#caf1fe"/>
          <path d="M49.2,52.1,32.9,68.4l1.7,1.1L50.9,53.2Z" fill="#caf1fe"/>
          <path d="M55.2,55.2,39.1,71.3l2.4.5,15.9-16A9,9,0,0,1,55.2,55.2Z" fill="#caf1fe"/>
          <path d="M59.5,60.1,48.6,71A17.1,17.1,0,0,0,59.5,60.1Z" fill="#caf1fe"/>
        </g>
      </g>
      <path d="M61.1,58.1A21.2,21.2,0,1,1,82.3,37,21.2,21.2,0,0,1,61.1,58.1Zm0-38.4A17.3,17.3,0,1,0,78.3,37,17.3,17.3,0,0,0,61.1,19.7Z" fill="#ddd"/>
    </g>
    <g>
      <circle cx="61.1" cy="37" r="19.2" fill="none" stroke="#ddd" stroke-miterlimit="10" stroke-width="6"/>
      <circle cx="61.1" cy="37" r="19.2" fill="none" stroke="#00c8ff" stroke-miterlimit="10" stroke-width="6"/>
    </g>
  </g>
</svg>
